<?xml version="1.0" encoding="UTF-8"?><svg width="267" height="189" viewBox="0 0 267 189" xmlns="http://www.w3.org/2000/svg" xmlns:xlink="http://www.w3.org/1999/xlink"><svg width="64" height="64" viewBox="0 0 64 64" id="comment" y="125" xmlns="http://www.w3.org/2000/svg"><path d="M.72.08A.67.67 0 0 0 0 .8v46.48c0 .398.322.72.72.72H48l16 16V.72a.67.67 0 0 0-.72-.72H.8L.72.08z" fill="#677B88" fill-rule="nonzero"/></svg><svg id="facebook" data-name="Layer 1" width="21.23" height="42.01" viewBox="0 0 21.23 42.01" x="215" y="42.06" xmlns="http://www.w3.org/2000/svg"><defs><style>.bcls-1{fill:#fff}</style></defs><path class="bcls-1" d="M21.23.31V7H17.4a3.55 3.55 0 0 0-2.85.91 4.26 4.26 0 0 0-.74 2.72v4.77H21l-1 7.47h-6.19V42H6.27V22.85H0v-7.47h6.27V9.85q0-4.69 2.55-7.28A9 9 0 0 1 15.63 0a39.57 39.57 0 0 1 5.6.31z"/></svg><svg width="56" height="64" viewBox="0 0 56 64" id="fire" x="65" y="61" xmlns="http://www.w3.org/2000/svg"><path d="M16 0C24 16 0 24 0 40s16 24 16 24C8.16 48.16 32 40 32 24S16 0 16 0zm24 24c8 16-16 24-16 40h24c3.2 0 8-4 8-16 0-16-16-24-16-24z" fill="#F95D6A" fill-rule="nonzero"/></svg><svg width="64" height="64" viewBox="0 0 64 64" id="globe" x="151" xmlns="http://www.w3.org/2000/svg"><path d="M32 0C14.327 0 0 14.327 0 32c0 17.673 14.327 32 32 32 17.673 0 32-14.327 32-32A32 32 0 0 0 32 0zm0 8a23.75 23.75 0 0 1 7.52 1.52c-1.68 1.6-3.6 3-3.28 4.48.32 1.48 5.52 1 5.52 4 0 2.16-3.36 2.8-1 5.28 2.8 2.8-5.12 7.84-5.28 11.52-.24 6.64 6.72 7.76 12.24 7.76 3.36 0 4.24 1.6 4 3.52a24.07 24.07 0 0 1-19.76 10 22.94 22.94 0 0 1-8.48-1.76c1.76-3.52-2.24-10.48-6-12.72-1.84-1.84-5.76-1.12-8-2a23.49 23.49 0 0 1-1.52-6.72 1.42 1.42 0 0 1 1.28-.72c1.52 0 3.6 3 4.72 2.72 1.4-.32-5.96-10.48-2.52-12.48 1.6-1 4.8 3.12 3.76-1.28-1-4.08 2.88-2.24 5.28-3.28 2.08-.88 3.6-3.28 1-4.72a8.55 8.55 0 0 1-1.76-1.52A23.75 23.75 0 0 1 32 8.08V8zm18.48 8.72A26.46 26.46 0 0 1 54 22.48v.24a11.78 11.78 0 0 1-1.76 1.76C50 26.72 49.68 22.8 48.72 22c-1-1-4.8.16-5.28-1-.56-1.48 4-3.4 7.04-4.28z" fill="#F95D6A" fill-rule="nonzero"/></svg><svg id="instagram" data-name="Layer 1" width="42.01" height="42.01" viewBox="0 0 42.01 42.01" x="215" y="84.07" xmlns="http://www.w3.org/2000/svg"><defs><style>.ecls-1{fill:#fff}</style></defs><path class="ecls-1" d="M37.25 35.49V17.77h-3.69a11.77 11.77 0 0 1 .57 3.58 12.12 12.12 0 0 1-1.75 6.36 12.76 12.76 0 0 1-4.76 4.59 13.13 13.13 0 0 1-6.56 1.7 12.78 12.78 0 0 1-9.19-3.71 12 12 0 0 1-3.83-9 11.77 11.77 0 0 1 .49-3.56H4.68v17.76a1.63 1.63 0 0 0 1.6 1.67h29.3a1.63 1.63 0 0 0 1.17-.47 1.59 1.59 0 0 0 .5-1.2zm-7.77-14.57A7.75 7.75 0 0 0 27 15.14a8.28 8.28 0 0 0-6-2.4 8.25 8.25 0 0 0-5.91 2.39 7.75 7.75 0 0 0-2.47 5.78 7.75 7.75 0 0 0 2.47 5.79A8.25 8.25 0 0 0 21 29.1a8.28 8.28 0 0 0 6-2.4 7.75 7.75 0 0 0 2.48-5.78zm7.76-9.84V6.56a1.84 1.84 0 0 0-.54-1.31 1.8 1.8 0 0 0-1.31-.56h-4.78a1.8 1.8 0 0 0-1.31.56 1.84 1.84 0 0 0-.54 1.31v4.52A1.87 1.87 0 0 0 30.6 13h4.8a1.87 1.87 0 0 0 1.85-1.89zM42 5.39v31.23A5.41 5.41 0 0 1 36.62 42H5.39a5.19 5.19 0 0 1-3.8-1.59A5.19 5.19 0 0 1 0 36.62V5.39a5.19 5.19 0 0 1 1.59-3.8A5.19 5.19 0 0 1 5.39 0h31.23a5.19 5.19 0 0 1 3.8 1.59A5.19 5.19 0 0 1 42 5.39z"/></svg><svg width="64" height="48" viewBox="0 0 64 48" id="mail" x="151" y="64" xmlns="http://www.w3.org/2000/svg"><path d="M0 0v8l32 16L64 8V0H0zm0 16v32h64V16L32 32 0 16z" fill="#F95D6A" fill-rule="nonzero"/></svg><svg width="65" height="64" viewBox="0 0 65 64" id="rain" y="61" xmlns="http://www.w3.org/2000/svg"><path d="M36.96 0a20.42 20.42 0 0 0-20 16c-8.837 0-16 7.163-16 16a15.4 15.4 0 0 0 4.27 10.72A11.88 11.88 0 0 1 12.96 40c1.545 0 3.072.342 4.47 1a12 12 0 0 1 11.53-9 12.06 12.06 0 0 1 11.51 9 11.84 11.84 0 0 1 4.49-1 11.94 11.94 0 0 1 11 7.52 12.07 12.07 0 0 0 9-11.52c0-5.2-3.36-10.32-8-12v-4c0-11.046-8.954-20-20-20zm-9.27 40a4 4 0 0 0-2.73 4v16a4 4 0 1 0 8 0V44a4 4 0 0 0-4.71-4h-.56zm-16 8a4 4 0 0 0-2.73 4v8a4 4 0 1 0 8 0v-8a4 4 0 0 0-4.71-4h-.56zm32 0a4 4 0 0 0-2.73 4v8a4 4 0 1 0 8 0v-8a4 4 0 0 0-4.71-4h-.58.02z" fill="#F95D6A" fill-rule="nonzero"/></svg><svg width="64" height="64" viewBox="0 0 64 64" id="star" x="124" y="125" xmlns="http://www.w3.org/2000/svg"><path d="M32 0l-8 24H0l20 16-8 24 20-16 20 16-8-24 20-16H40z" fill="#F95D6A" fill-rule="nonzero"/></svg><svg id="twitter" data-name="Layer 1" width="51.78" height="42.06" viewBox="0 0 51.78 42.06" x="215" xmlns="http://www.w3.org/2000/svg"><defs><style>.icls-1{fill:#fff}</style></defs><path class="icls-1" d="M51.78 5a22.23 22.23 0 0 1-5.32 5.52v1.38a30.15 30.15 0 0 1-1.25 8.53 30.81 30.81 0 0 1-3.76 8.13 32.1 32.1 0 0 1-6.06 6.92 27 27 0 0 1-8.48 4.8 31 31 0 0 1-10.62 1.8A29.47 29.47 0 0 1 0 37.29a22.71 22.71 0 0 0 2.56.13 20.78 20.78 0 0 0 13.17-4.53 10.63 10.63 0 0 1-9.92-7.36 13.45 13.45 0 0 0 2 .16 11 11 0 0 0 2.79-.36 10.44 10.44 0 0 1-6.09-3.67 10.25 10.25 0 0 1-2.41-6.75v-.13a10.52 10.52 0 0 0 4.8 1.34 10.6 10.6 0 0 1-3.45-3.78 10.34 10.34 0 0 1-1.28-5.07 10.4 10.4 0 0 1 1.45-5.33 30.08 30.08 0 0 0 9.71 7.83A29.57 29.57 0 0 0 25.53 13a11.79 11.79 0 0 1-.26-2.43 10.23 10.23 0 0 1 3-7.48 10.64 10.64 0 0 1 15 0l.21.22A20.81 20.81 0 0 0 50.33.8a10.3 10.3 0 0 1-4.67 5.85A21.14 21.14 0 0 0 51.78 5z"/></svg><svg width="60" height="64" viewBox="0 0 60 64" id="wifi" x="64" y="125" xmlns="http://www.w3.org/2000/svg"><path d="M29.88 0A55.39 55.39 0 0 0 0 8.72l4.22 6.48a47.32 47.32 0 0 1 25.66-7.28 47.31 47.31 0 0 1 25.9 7.28L60 8.72A55.53 55.53 0 0 0 29.88 0zm0 24a31.08 31.08 0 0 0-17 5l4.22 6.72A23.09 23.09 0 0 1 29.8 32a24.17 24.17 0 0 1 13 3.76L47 29a32.37 32.37 0 0 0-17.2-5h.08zm0 24a8 8 0 1 0 0 16 8 8 0 0 0 0-16z" fill="#F95D6A" fill-rule="nonzero"/></svg><svg width="151" height="61" viewBox="0 0 151 61" id="xivig" xmlns="http://www.w3.org/2000/svg"><g fill="#F86762" fill-rule="nonzero" opacity=".857"><path d="M45.3 1.58c-1.907 1.897-2.066 5.294-.318 7.744.954 1.422 1.987 1.738 5.086 1.738 3.1 0 4.133-.316 5.087-1.738C58.255 4.899 55.552 0 50.068 0c-2.145 0-3.735.553-4.768 1.58zM99.342 1.58c-1.907 1.897-2.066 5.294-.318 7.744.954 1.422 1.987 1.738 5.087 1.738 3.099 0 4.132-.316 5.086-1.738 3.1-4.425.397-9.324-5.086-9.324-2.146 0-3.736.553-4.769 1.58zM.238 5.926c.318.632 3.338 5.373 6.915 10.588 3.496 5.215 6.358 9.877 6.358 10.351 0 .395-3.02 4.662-6.756 9.403C3.02 41.01 0 45.118 0 45.355c0 .237 2.305.474 5.166.474h5.086l4.053-5.926c2.226-3.24 4.133-5.926 4.292-5.926.159 0 1.987 2.686 4.132 5.926l3.895 5.926h6.993c3.815 0 6.915-.237 6.915-.474 0-.316-3.259-5.294-7.233-11.141l-7.232-10.588 7.232-8.85c3.974-4.82 7.233-9.087 7.233-9.403 0-.395-2.226-.632-5.007-.632h-5.007l-4.45 6.005-4.451 6.005-4.053-6.005-4.133-6.005H6.676c-5.643 0-6.755.237-6.438 1.185zM124.853 12.722c-6.835 2.686-9.934 7.901-9.934 16.514 0 8.217 2.464 12.88 8.424 15.882 3.259 1.66 10.252 2.054 13.67.711 1.828-.632 2.066-.553 2.066.87 0 .868-.556 2.607-1.192 3.87-2.861 5.532-8.583 6.401-12.636 1.976-2.703-2.844-4.292-3.318-6.915-1.975-1.987 1.106-1.907 1.738.636 4.82 6.2 7.27 20.663 7.427 27.419.237C150.444 51.36 151 48.04 151 29.552v-16.91h-2.782c-2.225 0-3.1.475-4.291 2.371l-1.43 2.37-1.51-1.659c-3.1-3.477-11.206-4.978-16.134-3.002zm11.842 7.427c1.59 1.66 1.987 3.082 2.225 7.348.397 6.243-1.033 10.43-4.133 12.406-1.907 1.264-2.225 1.264-4.053.079-6.676-4.346-4.848-21.808 2.225-21.808 1.034 0 2.703.869 3.736 1.975zM44.505 29.236v16.593H55.632V12.642H44.505zM59.605 13.196c0 .395 2.543 7.822 5.722 16.593l5.802 16.04h11.126l6.2-15.645c3.337-8.613 6.119-16.12 6.119-16.593 0-.632-1.51-.949-4.292-.949h-4.37L82.572 23.31c-1.828 5.847-3.576 10.43-3.815 10.272-.317-.158-2.145-4.9-4.053-10.588L71.13 12.642h-5.722c-3.18 0-5.802.238-5.802.554zM98.547 29.236v16.593H109.674V12.642H98.547z"/></g></svg><svg id="youtube" data-name="Layer 1" width="34.75" height="42" viewBox="0 0 34.75 42" x="215" y="126.07999999999998" xmlns="http://www.w3.org/2000/svg"><defs><style>.lcls-1{fill:#fff}</style></defs><path class="lcls-1" d="M22.13 29.15v5q0 1.57-.91 1.57a1.5 1.5 0 0 1-1.06-.52v-7.11a1.5 1.5 0 0 1 1.06-.54q.91 0 .91 1.6zm7.92 0v1.08h-2.1v-1.06q0-1.59 1.06-1.59t1 1.59zM7.42 24h2.5v-2.14h-7.3v2.2h2.46V37.4h2.34V24zm6.75 13.4h2.09V25.82h-2.09v8.86a1.86 1.86 0 0 1-1.31 1 .48.48 0 0 1-.49-.47 6.52 6.52 0 0 1 0-.82v-8.57h-2.14V35a5.79 5.79 0 0 0 .19 1.71 1.26 1.26 0 0 0 1.36.87 3.43 3.43 0 0 0 2.39-1.43v1.25zm10.05-3.47v-4.6A8.33 8.33 0 0 0 24 27a1.63 1.63 0 0 0-1.67-1.31A2.82 2.82 0 0 0 20.16 27v-5.1h-2.08v15.5h2.09v-1.13a2.91 2.91 0 0 0 2.18 1.31A1.62 1.62 0 0 0 24 36.27a8.61 8.61 0 0 0 .22-2.35zm7.92-.24v-.3H30a11.6 11.6 0 0 1 0 1.43.9.9 0 0 1-.94.85q-1.08 0-1.08-1.61V32h4.19v-2.41a4.65 4.65 0 0 0-.66-2.72 3.2 3.2 0 0 0-5 0 4.52 4.52 0 0 0-.66 2.72v4.05a4.4 4.4 0 0 0 .66 2.72 3 3 0 0 0 2.49 1.2 2.9 2.9 0 0 0 3-2.51 10.31 10.31 0 0 0 .09-1.36zM17.89 12.3V7.38q0-1.61-1-1.61t-1 1.61v4.92q0 1.64 1 1.64t1-1.64zm16.85 17.6a40.6 40.6 0 0 1-.61 8.2 4.45 4.45 0 0 1-1.36 2.32 4.1 4.1 0 0 1-2.39 1.08 125.31 125.31 0 0 1-13 .49 125.31 125.31 0 0 1-13-.49A4.15 4.15 0 0 1 2 40.42 4.28 4.28 0 0 1 .63 38.1 39.76 39.76 0 0 1 0 29.9a40.6 40.6 0 0 1 .61-8.2A4.45 4.45 0 0 1 2 19.37a4.25 4.25 0 0 1 2.41-1.1q4.29-.47 13-.47t13 .47a4.4 4.4 0 0 1 3.75 3.42 39.76 39.76 0 0 1 .58 8.21zM11.35 0h2.39l-2.83 9.35v6.35H8.57V9.35a39.68 39.68 0 0 0-1.43-5Q6.27 2 5.61 0H8.1l1.67 6.16zM20 7.8v4.1a4.59 4.59 0 0 1-.66 2.76 2.88 2.88 0 0 1-2.49 1.19 2.9 2.9 0 0 1-2.46-1.19 4.68 4.68 0 0 1-.66-2.76V7.8a4.59 4.59 0 0 1 .66-2.74 2.9 2.9 0 0 1 2.46-1.19 2.88 2.88 0 0 1 2.49 1.19A4.59 4.59 0 0 1 20 7.8zM27.87 4v11.7h-2.13v-1.27a3.37 3.37 0 0 1-2.41 1.45A1.31 1.31 0 0 1 22 15a6 6 0 0 1-.19-1.76V4h2.13v8.6a6.14 6.14 0 0 0 0 .82.49.49 0 0 0 .47.52 1.87 1.87 0 0 0 1.31-1V4h2.16z"/></svg></svg>