<?xml version="1.0" encoding="UTF-8"?><svg width="272" height="197" viewBox="0 0 272 197" xmlns="http://www.w3.org/2000/svg" xmlns:xlink="http://www.w3.org/1999/xlink"><svg width="59" height="59" viewBox="0 0 59 59" id="comment" x="133" y="128" xmlns="http://www.w3.org/2000/svg"><path d="M.666.076a.618.618 0 0 0-.664.663v42.848c0 .366.297.663.664.663h43.583L59 59V.666a.618.618 0 0 0-.665-.664H.74L.666.076z" fill="#F95D6A" fill-rule="nonzero"/></svg><svg width="64" height="63" viewBox="0 0 64 63" id="cube" x="69" y="128" xmlns="http://www.w3.org/2000/svg"><path d="M29.893.383L3.888 10.15A6.018 6.018 0 0 0 0 15.784v28.184a6.008 6.008 0 0 0 3.313 5.372L29.318 62.36a5.95 5.95 0 0 0 5.364 0L60.687 49.34A6 6 0 0 0 64 43.968V15.784a6.001 6.001 0 0 0-3.888-5.622L34.107.396a5.889 5.889 0 0 0-4.214-.013zm2.113 7.776l24.005 9.015v.138l-24.005 9.766-24.004-9.766v-.138l24.004-9.015zm4.001 44.574V34.089l20.004-8.138v16.765L36.007 52.733z" fill="#F95D6A" fill-rule="nonzero"/></svg><svg width="69" height="69" viewBox="0 0 69 69" id="download" x="151" xmlns="http://www.w3.org/2000/svg"><path d="M29.11 0h10.78a3.227 3.227 0 0 1 3.235 3.234v22.641h11.819c2.399 0 3.598 2.897 1.9 4.596L36.346 50.98a2.611 2.611 0 0 1-3.679 0l-20.525-20.51c-1.698-1.699-.498-4.596 1.9-4.596h11.833V3.235A3.227 3.227 0 0 1 29.109 0zM69 50.672v15.094A3.227 3.227 0 0 1 65.766 69H3.234A3.227 3.227 0 0 1 0 65.766V50.672a3.227 3.227 0 0 1 3.234-3.234h19.77l6.604 6.603a6.906 6.906 0 0 0 9.784 0l6.604-6.603h19.77A3.227 3.227 0 0 1 69 50.672zm-16.71 11.86a2.703 2.703 0 0 0-2.696-2.696 2.703 2.703 0 0 0-2.696 2.695 2.703 2.703 0 0 0 2.696 2.696 2.703 2.703 0 0 0 2.695-2.696zm8.624 0a2.703 2.703 0 0 0-2.695-2.696 2.703 2.703 0 0 0-2.696 2.695 2.703 2.703 0 0 0 2.696 2.696 2.703 2.703 0 0 0 2.695-2.696z" fill="#F95D6A" fill-rule="nonzero"/></svg><svg id="facebook" data-name="Layer 1" width="21.23" height="42.01" viewBox="0 0 21.23 42.01" x="220" y="42.06" xmlns="http://www.w3.org/2000/svg"><defs><style>.dcls-1{fill:#fff}</style></defs><path class="dcls-1" d="M21.23.31V7H17.4a3.55 3.55 0 0 0-2.85.91 4.26 4.26 0 0 0-.74 2.72v4.77H21l-1 7.47h-6.19V42H6.27V22.85H0v-7.47h6.27V9.85q0-4.69 2.55-7.28A9 9 0 0 1 15.63 0a39.57 39.57 0 0 1 5.6.31z"/></svg><svg width="76" height="67" viewBox="0 0 76 67" id="gem" y="61" xmlns="http://www.w3.org/2000/svg"><path d="M64.059 0L76 20.938H62.66L53.53 0h10.529zM47.17 0l9.13 20.938H19.7L28.83 0h18.34zM11.941 0h10.53L13.34 20.938H0L11.941 0zM0 25.125h13.287l16.229 32.937c.198.406-.356.772-.66.432L0 25.125zm19.554 0h36.892l-18.077 41.64c-.132.314-.593.314-.725 0l-18.09-41.64zm26.93 32.937l16.23-32.937H76L47.144 58.481c-.304.353-.858-.013-.66-.419z" fill="#F95D6A" fill-rule="nonzero"/></svg><svg width="65" height="65" viewBox="0 0 65 65" id="globe" x="76" y="61" xmlns="http://www.w3.org/2000/svg"><path d="M44.107 19.92C42.207 8.216 37.723 0 32.507 0c-5.217 0-9.7 8.217-11.6 19.92h23.2zM19.923 32.5c0 2.91.158 5.7.433 8.387h24.288c.275-2.686.433-5.478.433-8.387 0-2.91-.158-5.7-.433-8.387H20.356a82.124 82.124 0 0 0-.433 8.387zm42.56-12.58C58.735 11.02 51.145 4.14 41.773 1.362c3.199 4.43 5.4 11.1 6.554 18.556h14.156zM23.226 1.362A32.551 32.551 0 0 0 2.53 19.919h14.156c1.14-7.456 3.342-14.127 6.54-18.556zm40.66 22.75H48.852c.275 2.752.432 5.57.432 8.387 0 2.818-.157 5.635-.432 8.387h15.02A32.214 32.214 0 0 0 65 32.5c0-2.91-.406-5.7-1.114-8.387zM15.729 32.5c0-2.818.157-5.635.433-8.387H1.127C.42 26.799 0 29.59 0 32.5c0 2.91.42 5.7 1.127 8.387h15.021a88.72 88.72 0 0 1-.419-8.387zm5.177 12.58C22.807 56.784 27.29 65 32.506 65c5.217 0 9.7-8.217 11.6-19.92h-23.2zm20.88 18.557c9.36-2.778 16.962-9.658 20.71-18.556H48.34c-1.153 7.456-3.355 14.127-6.553 18.556zM2.53 45.081c3.748 8.898 11.338 15.778 20.71 18.556-3.199-4.43-5.4-11.1-6.554-18.556H2.53z" fill="#F95D6A" fill-rule="nonzero"/></svg><svg id="instagram" data-name="Layer 1" width="42.01" height="42.01" viewBox="0 0 42.01 42.01" x="220" y="84.07" xmlns="http://www.w3.org/2000/svg"><defs><style>.gcls-1{fill:#fff}</style></defs><path class="gcls-1" d="M37.25 35.49V17.77h-3.69a11.77 11.77 0 0 1 .57 3.58 12.12 12.12 0 0 1-1.75 6.36 12.76 12.76 0 0 1-4.76 4.59 13.13 13.13 0 0 1-6.56 1.7 12.78 12.78 0 0 1-9.19-3.71 12 12 0 0 1-3.83-9 11.77 11.77 0 0 1 .49-3.56H4.68v17.76a1.63 1.63 0 0 0 1.6 1.67h29.3a1.63 1.63 0 0 0 1.17-.47 1.59 1.59 0 0 0 .5-1.2zm-7.77-14.57A7.75 7.75 0 0 0 27 15.14a8.28 8.28 0 0 0-6-2.4 8.25 8.25 0 0 0-5.91 2.39 7.75 7.75 0 0 0-2.47 5.78 7.75 7.75 0 0 0 2.47 5.79A8.25 8.25 0 0 0 21 29.1a8.28 8.28 0 0 0 6-2.4 7.75 7.75 0 0 0 2.48-5.78zm7.76-9.84V6.56a1.84 1.84 0 0 0-.54-1.31 1.8 1.8 0 0 0-1.31-.56h-4.78a1.8 1.8 0 0 0-1.31.56 1.84 1.84 0 0 0-.54 1.31v4.52A1.87 1.87 0 0 0 30.6 13h4.8a1.87 1.87 0 0 0 1.85-1.89zM42 5.39v31.23A5.41 5.41 0 0 1 36.62 42H5.39a5.19 5.19 0 0 1-3.8-1.59A5.19 5.19 0 0 1 0 36.62V5.39a5.19 5.19 0 0 1 1.59-3.8A5.19 5.19 0 0 1 5.39 0h31.23a5.19 5.19 0 0 1 3.8 1.59A5.19 5.19 0 0 1 42 5.39z"/></svg><svg width="69" height="69" viewBox="0 0 69 69" id="life-ring" y="128" xmlns="http://www.w3.org/2000/svg"><path d="M34.5 0C15.446 0 0 15.446 0 34.5 0 53.554 15.446 69 34.5 69 53.554 69 69 53.554 69 34.5 69 15.446 53.554 0 34.5 0zm24.163 16.632l-8.82 8.82a18.005 18.005 0 0 0-6.295-6.296l8.82-8.82a30.382 30.382 0 0 1 6.295 6.296zM34.5 47.855c-7.376 0-13.355-5.98-13.355-13.355 0-7.376 5.98-13.355 13.355-13.355 7.376 0 13.355 5.98 13.355 13.355 0 7.376-5.98 13.355-13.355 13.355zM16.632 10.337l8.82 8.82a18.005 18.005 0 0 0-6.296 6.295l-8.82-8.82a30.378 30.378 0 0 1 6.296-6.295zm-6.295 42.03l8.82-8.819a18.005 18.005 0 0 0 6.295 6.296l-8.82 8.82a30.382 30.382 0 0 1-6.295-6.296zm42.03 6.296l-8.819-8.82a18.005 18.005 0 0 0 6.296-6.295l8.82 8.82a30.383 30.383 0 0 1-6.296 6.295z" fill="#F95D6A" fill-rule="nonzero"/></svg><svg width="64" height="48" viewBox="0 0 64 48" id="mail" x="151" y="69" xmlns="http://www.w3.org/2000/svg"><path d="M0 0v8l32 16L64 8V0H0zm0 16v32h64V16L32 32 0 16z" fill="#F95D6A" fill-rule="nonzero"/></svg><svg id="twitter" data-name="Layer 1" width="51.78" height="42.06" viewBox="0 0 51.78 42.06" x="220" xmlns="http://www.w3.org/2000/svg"><defs><style>.jcls-1{fill:#fff}</style></defs><path class="jcls-1" d="M51.78 5a22.23 22.23 0 0 1-5.32 5.52v1.38a30.15 30.15 0 0 1-1.25 8.53 30.81 30.81 0 0 1-3.76 8.13 32.1 32.1 0 0 1-6.06 6.92 27 27 0 0 1-8.48 4.8 31 31 0 0 1-10.62 1.8A29.47 29.47 0 0 1 0 37.29a22.71 22.71 0 0 0 2.56.13 20.78 20.78 0 0 0 13.17-4.53 10.63 10.63 0 0 1-9.92-7.36 13.45 13.45 0 0 0 2 .16 11 11 0 0 0 2.79-.36 10.44 10.44 0 0 1-6.09-3.67 10.25 10.25 0 0 1-2.41-6.75v-.13a10.52 10.52 0 0 0 4.8 1.34 10.6 10.6 0 0 1-3.45-3.78 10.34 10.34 0 0 1-1.28-5.07 10.4 10.4 0 0 1 1.45-5.33 30.08 30.08 0 0 0 9.71 7.83A29.57 29.57 0 0 0 25.53 13a11.79 11.79 0 0 1-.26-2.43 10.23 10.23 0 0 1 3-7.48 10.64 10.64 0 0 1 15 0l.21.22A20.81 20.81 0 0 0 50.33.8a10.3 10.3 0 0 1-4.67 5.85A21.14 21.14 0 0 0 51.78 5z"/></svg><svg width="151" height="61" viewBox="0 0 151 61" id="xivig" xmlns="http://www.w3.org/2000/svg"><g fill="#F86762" fill-rule="nonzero" opacity=".857"><path d="M45.3 1.58c-1.907 1.897-2.066 5.294-.318 7.744.954 1.422 1.987 1.738 5.086 1.738 3.1 0 4.133-.316 5.087-1.738C58.255 4.899 55.552 0 50.068 0c-2.145 0-3.735.553-4.768 1.58zM99.342 1.58c-1.907 1.897-2.066 5.294-.318 7.744.954 1.422 1.987 1.738 5.087 1.738 3.099 0 4.132-.316 5.086-1.738 3.1-4.425.397-9.324-5.086-9.324-2.146 0-3.736.553-4.769 1.58zM.238 5.926c.318.632 3.338 5.373 6.915 10.588 3.496 5.215 6.358 9.877 6.358 10.351 0 .395-3.02 4.662-6.756 9.403C3.02 41.01 0 45.118 0 45.355c0 .237 2.305.474 5.166.474h5.086l4.053-5.926c2.226-3.24 4.133-5.926 4.292-5.926.159 0 1.987 2.686 4.132 5.926l3.895 5.926h6.993c3.815 0 6.915-.237 6.915-.474 0-.316-3.259-5.294-7.233-11.141l-7.232-10.588 7.232-8.85c3.974-4.82 7.233-9.087 7.233-9.403 0-.395-2.226-.632-5.007-.632h-5.007l-4.45 6.005-4.451 6.005-4.053-6.005-4.133-6.005H6.676c-5.643 0-6.755.237-6.438 1.185zM124.853 12.722c-6.835 2.686-9.934 7.901-9.934 16.514 0 8.217 2.464 12.88 8.424 15.882 3.259 1.66 10.252 2.054 13.67.711 1.828-.632 2.066-.553 2.066.87 0 .868-.556 2.607-1.192 3.87-2.861 5.532-8.583 6.401-12.636 1.976-2.703-2.844-4.292-3.318-6.915-1.975-1.987 1.106-1.907 1.738.636 4.82 6.2 7.27 20.663 7.427 27.419.237C150.444 51.36 151 48.04 151 29.552v-16.91h-2.782c-2.225 0-3.1.475-4.291 2.371l-1.43 2.37-1.51-1.659c-3.1-3.477-11.206-4.978-16.134-3.002zm11.842 7.427c1.59 1.66 1.987 3.082 2.225 7.348.397 6.243-1.033 10.43-4.133 12.406-1.907 1.264-2.225 1.264-4.053.079-6.676-4.346-4.848-21.808 2.225-21.808 1.034 0 2.703.869 3.736 1.975zM44.505 29.236v16.593H55.632V12.642H44.505zM59.605 13.196c0 .395 2.543 7.822 5.722 16.593l5.802 16.04h11.126l6.2-15.645c3.337-8.613 6.119-16.12 6.119-16.593 0-.632-1.51-.949-4.292-.949h-4.37L82.572 23.31c-1.828 5.847-3.576 10.43-3.815 10.272-.317-.158-2.145-4.9-4.053-10.588L71.13 12.642h-5.722c-3.18 0-5.802.238-5.802.554zM98.547 29.236v16.593H109.674V12.642H98.547z"/></g></svg><svg id="youtube" data-name="Layer 1" width="34.75" height="42" viewBox="0 0 34.75 42" x="220" y="126.07999999999998" xmlns="http://www.w3.org/2000/svg"><defs><style>.lcls-1{fill:#fff}</style></defs><path class="lcls-1" d="M22.13 29.15v5q0 1.57-.91 1.57a1.5 1.5 0 0 1-1.06-.52v-7.11a1.5 1.5 0 0 1 1.06-.54q.91 0 .91 1.6zm7.92 0v1.08h-2.1v-1.06q0-1.59 1.06-1.59t1 1.59zM7.42 24h2.5v-2.14h-7.3v2.2h2.46V37.4h2.34V24zm6.75 13.4h2.09V25.82h-2.09v8.86a1.86 1.86 0 0 1-1.31 1 .48.48 0 0 1-.49-.47 6.52 6.52 0 0 1 0-.82v-8.57h-2.14V35a5.79 5.79 0 0 0 .19 1.71 1.26 1.26 0 0 0 1.36.87 3.43 3.43 0 0 0 2.39-1.43v1.25zm10.05-3.47v-4.6A8.33 8.33 0 0 0 24 27a1.63 1.63 0 0 0-1.67-1.31A2.82 2.82 0 0 0 20.16 27v-5.1h-2.08v15.5h2.09v-1.13a2.91 2.91 0 0 0 2.18 1.31A1.62 1.62 0 0 0 24 36.27a8.61 8.61 0 0 0 .22-2.35zm7.92-.24v-.3H30a11.6 11.6 0 0 1 0 1.43.9.9 0 0 1-.94.85q-1.08 0-1.08-1.61V32h4.19v-2.41a4.65 4.65 0 0 0-.66-2.72 3.2 3.2 0 0 0-5 0 4.52 4.52 0 0 0-.66 2.72v4.05a4.4 4.4 0 0 0 .66 2.72 3 3 0 0 0 2.49 1.2 2.9 2.9 0 0 0 3-2.51 10.31 10.31 0 0 0 .09-1.36zM17.89 12.3V7.38q0-1.61-1-1.61t-1 1.61v4.92q0 1.64 1 1.64t1-1.64zm16.85 17.6a40.6 40.6 0 0 1-.61 8.2 4.45 4.45 0 0 1-1.36 2.32 4.1 4.1 0 0 1-2.39 1.08 125.31 125.31 0 0 1-13 .49 125.31 125.31 0 0 1-13-.49A4.15 4.15 0 0 1 2 40.42 4.28 4.28 0 0 1 .63 38.1 39.76 39.76 0 0 1 0 29.9a40.6 40.6 0 0 1 .61-8.2A4.45 4.45 0 0 1 2 19.37a4.25 4.25 0 0 1 2.41-1.1q4.29-.47 13-.47t13 .47a4.4 4.4 0 0 1 3.75 3.42 39.76 39.76 0 0 1 .58 8.21zM11.35 0h2.39l-2.83 9.35v6.35H8.57V9.35a39.68 39.68 0 0 0-1.43-5Q6.27 2 5.61 0H8.1l1.67 6.16zM20 7.8v4.1a4.59 4.59 0 0 1-.66 2.76 2.88 2.88 0 0 1-2.49 1.19 2.9 2.9 0 0 1-2.46-1.19 4.68 4.68 0 0 1-.66-2.76V7.8a4.59 4.59 0 0 1 .66-2.74 2.9 2.9 0 0 1 2.46-1.19 2.88 2.88 0 0 1 2.49 1.19A4.59 4.59 0 0 1 20 7.8zM27.87 4v11.7h-2.13v-1.27a3.37 3.37 0 0 1-2.41 1.45A1.31 1.31 0 0 1 22 15a6 6 0 0 1-.19-1.76V4h2.13v8.6a6.14 6.14 0 0 0 0 .82.49.49 0 0 0 .47.52 1.87 1.87 0 0 0 1.31-1V4h2.16z"/></svg></svg>