<?xml version="1.0" encoding="UTF-8"?>
<svg width="64px" height="63px" viewBox="0 0 64 63" version="1.1" xmlns="http://www.w3.org/2000/svg" xmlns:xlink="http://www.w3.org/1999/xlink">
    <!-- Generator: Sketch 50.2 (55047) - http://www.bohemiancoding.com/sketch -->
    <title>cube</title>
    <desc>Created with Sketch.</desc>
    <defs></defs>
    <g id="Page-1" stroke="none" stroke-width="1" fill="none" fill-rule="evenodd">
        <g id="cube" fill="#F95D6A" fill-rule="nonzero">
            <path d="M29.8933385,0.383463738 L3.88825943,10.1496901 C1.55030279,11.0261464 0,13.2798909 0,15.7840515 L0,43.9683793 C0,46.2471655 1.28775151,48.3256188 3.3131471,49.3398038 L29.3182262,62.361439 C31.0060559,63.2128537 32.9939441,63.2128537 34.6817738,62.361439 L60.6868529,49.3398038 C62.7247509,48.3256188 64,46.2346447 64,43.9683793 L64,15.7840515 C64,13.2798909 62.4496972,11.0386672 60.1117406,10.162211 L34.1066615,0.395984541 C32.7563977,-0.129889189 31.2561047,-0.129889189 29.8933385,0.383463738 Z M32.0062512,8.15888246 L56.0109396,17.1738607 L56.0109396,17.3115895 L32.0062512,27.0778159 L8.00156281,17.3115895 L8.00156281,17.1738607 L32.0062512,8.15888246 Z M36.0070326,52.7329415 L36.0070326,34.0894657 L56.0109396,25.9509437 L56.0109396,42.716299 L36.0070326,52.7329415 Z" id="Shape"></path>
        </g>
    </g>
</svg>