<?xml version="1.0" encoding="UTF-8"?>
<svg width="69px" height="69px" viewBox="0 0 69 69" version="1.1" xmlns="http://www.w3.org/2000/svg" xmlns:xlink="http://www.w3.org/1999/xlink">
    <!-- Generator: Sketch 50.2 (55047) - http://www.bohemiancoding.com/sketch -->
    <title>download</title>
    <desc>Created with Sketch.</desc>
    <defs></defs>
    <g id="Page-1" stroke="none" stroke-width="1" fill="none" fill-rule="evenodd">
        <g id="download" fill="#F95D6A" fill-rule="nonzero">
            <path d="M29.109375,0 L39.890625,0 C41.6830078,0 43.125,1.44199219 43.125,3.234375 L43.125,25.875 L54.9439453,25.875 C57.3427734,25.875 58.5421875,28.7724609 56.8441406,30.4705078 L36.3462891,50.9818359 C35.3355469,51.9925781 33.6779297,51.9925781 32.6671875,50.9818359 L12.1423828,30.4705078 C10.4443359,28.7724609 11.64375,25.875 14.0425781,25.875 L25.875,25.875 L25.875,3.234375 C25.875,1.44199219 27.3169922,0 29.109375,0 Z M69,50.671875 L69,65.765625 C69,67.5580078 67.5580078,69 65.765625,69 L3.234375,69 C1.44199219,69 0,67.5580078 0,65.765625 L0,50.671875 C0,48.8794922 1.44199219,47.4375 3.234375,47.4375 L23.0044922,47.4375 L29.6080078,54.0410156 C32.3167969,56.7498047 36.6832031,56.7498047 39.3919922,54.0410156 L45.9955078,47.4375 L65.765625,47.4375 C67.5580078,47.4375 69,48.8794922 69,50.671875 Z M52.2890625,62.53125 C52.2890625,61.0488281 51.0761719,59.8359375 49.59375,59.8359375 C48.1113281,59.8359375 46.8984375,61.0488281 46.8984375,62.53125 C46.8984375,64.0136719 48.1113281,65.2265625 49.59375,65.2265625 C51.0761719,65.2265625 52.2890625,64.0136719 52.2890625,62.53125 Z M60.9140625,62.53125 C60.9140625,61.0488281 59.7011719,59.8359375 58.21875,59.8359375 C56.7363281,59.8359375 55.5234375,61.0488281 55.5234375,62.53125 C55.5234375,64.0136719 56.7363281,65.2265625 58.21875,65.2265625 C59.7011719,65.2265625 60.9140625,64.0136719 60.9140625,62.53125 Z" id="Shape"></path>
        </g>
    </g>
</svg>