<?xml version="1.0" encoding="UTF-8"?>
<svg width="76px" height="67px" viewBox="0 0 76 67" version="1.1" xmlns="http://www.w3.org/2000/svg" xmlns:xlink="http://www.w3.org/1999/xlink">
    <!-- Generator: Sketch 50.2 (55047) - http://www.bohemiancoding.com/sketch -->
    <title>Shape</title>
    <desc>Created with Sketch.</desc>
    <defs></defs>
    <g id="Page-1" stroke="none" stroke-width="1" fill="none" fill-rule="evenodd">
        <g id="gem" fill="#F95D6A" fill-rule="nonzero">
            <path d="M64.0590278,0 L76,20.9375 L62.6604167,20.9375 L53.5298611,0 L64.0590278,0 Z M47.1701389,0 L56.3006944,20.9375 L19.6993056,20.9375 L28.8298611,0 L47.1701389,0 Z M11.9409722,0 L22.4701389,0 L13.3395833,20.9375 L0,20.9375 L11.9409722,0 Z M0,25.125 L13.2868056,25.125 L29.5159722,58.0623047 C29.7138889,58.4679688 29.1597222,58.834375 28.85625,58.4941406 L0,25.125 Z M19.5541667,25.125 L56.4458333,25.125 L38.3694444,66.7644531 C38.2375,67.0785156 37.7756944,67.0785156 37.64375,66.7644531 L19.5541667,25.125 Z M46.4840278,58.0623047 L62.7131944,25.125 L76,25.125 L47.14375,58.4810547 C46.8402778,58.834375 46.2861111,58.4679687 46.4840278,58.0623047 Z" id="Shape"></path>
        </g>
    </g>
</svg>