<?xml version="1.0" encoding="UTF-8"?>
<svg width="65px" height="65px" viewBox="0 0 65 65" version="1.1" xmlns="http://www.w3.org/2000/svg" xmlns:xlink="http://www.w3.org/1999/xlink">
    <!-- Generator: Sketch 50.2 (55047) - http://www.bohemiancoding.com/sketch -->
    <title>globe</title>
    <desc>Created with Sketch.</desc>
    <defs></defs>
    <g id="Page-1" stroke="none" stroke-width="1" fill="none" fill-rule="evenodd">
        <g id="globe" fill="#F95D6A" fill-rule="nonzero">
            <path d="M44.1066747,19.9193548 C42.2060899,8.21673387 37.7233313,0 32.5065537,0 C27.2897762,0 22.8070175,8.21673387 20.9064327,19.9193548 L44.1066747,19.9193548 Z M19.9233716,32.5 C19.9233716,35.4092742 20.0806614,38.2006048 20.3559185,40.8870968 L44.6440815,40.8870968 C44.9193386,38.2006048 45.0766284,35.4092742 45.0766284,32.5 C45.0766284,29.5907258 44.9193386,26.7993952 44.6440815,24.1129032 L20.3559185,24.1129032 C20.0806614,26.7993952 19.9233716,29.5907258 19.9233716,32.5 Z M62.4833636,19.9193548 C58.7346239,11.0211694 51.1453922,4.14112903 41.7735431,1.36290323 C44.9717685,5.79233871 47.1738254,12.4627016 48.3272837,19.9193548 L62.4833636,19.9193548 Z M23.2264569,1.36290323 C13.8677153,4.14112903 6.26537608,11.0211694 2.5297439,19.9193548 L16.6858238,19.9193548 C17.8261746,12.4627016 20.0282315,5.79233871 23.2264569,1.36290323 Z M63.8858641,24.1129032 L48.851583,24.1129032 C49.1268401,26.8649194 49.2841299,29.6824597 49.2841299,32.5 C49.2841299,35.3175403 49.1268401,38.1350806 48.851583,40.8870968 L63.8727566,40.8870968 C64.5936681,38.2006048 65,35.4092742 65,32.5 C65,29.5907258 64.5936681,26.7993952 63.8858641,24.1129032 Z M15.7289776,32.5 C15.7289776,29.6824597 15.8862674,26.8649194 16.1615245,24.1129032 L1.1272434,24.1129032 C0.419439403,26.7993952 0,29.5907258 0,32.5 C0,35.4092742 0.419439403,38.2006048 1.1272434,40.8870968 L16.148417,40.8870968 C15.8862674,38.1350806 15.7289776,35.3175403 15.7289776,32.5 Z M20.9064327,45.0806452 C22.8070175,56.7832661 27.2897762,65 32.5065537,65 C37.7233313,65 42.2060899,56.7832661 44.1066747,45.0806452 L20.9064327,45.0806452 Z M41.7866505,63.6370968 C51.1453922,60.858871 58.7477314,53.9788306 62.4964711,45.0806452 L48.3403912,45.0806452 C47.1869328,52.5372984 44.984876,59.2076613 41.7866505,63.6370968 Z M2.5297439,45.0806452 C6.27848357,53.9788306 13.8677153,60.858871 23.2395644,63.6370968 C20.041339,59.2076613 17.8392821,52.5372984 16.6858238,45.0806452 L2.5297439,45.0806452 Z" id="Shape"></path>
        </g>
    </g>
</svg>