<?xml version="1.0" encoding="UTF-8"?>
<svg width="69px" height="69px" viewBox="0 0 69 69" version="1.1" xmlns="http://www.w3.org/2000/svg" xmlns:xlink="http://www.w3.org/1999/xlink">
    <!-- Generator: Sketch 50.2 (55047) - http://www.bohemiancoding.com/sketch -->
    <title>life-ring</title>
    <desc>Created with Sketch.</desc>
    <defs></defs>
    <g id="Page-1" stroke="none" stroke-width="1" fill="none" fill-rule="evenodd">
        <g id="life-ring" fill="#F95D6A" fill-rule="nonzero">
            <path d="M34.5,0 C15.446123,0 0,15.446123 0,34.5 C0,53.553877 15.446123,69 34.5,69 C53.553877,69 69,53.553877 69,34.5 C69,15.446123 53.553877,0 34.5,0 Z M58.6633548,16.6321996 L49.8437359,25.4518185 C48.3153024,22.8700222 46.1335948,20.6869234 43.5481815,19.1562641 L52.3678004,10.3366452 C54.7640829,12.1146272 56.8853728,14.2359171 58.6633548,16.6321996 Z M34.5,47.8548387 C27.124373,47.8548387 21.1451613,41.875627 21.1451613,34.5 C21.1451613,27.124373 27.124373,21.1451613 34.5,21.1451613 C41.875627,21.1451613 47.8548387,27.124373 47.8548387,34.5 C47.8548387,41.875627 41.875627,47.8548387 34.5,47.8548387 Z M16.6321996,10.3366452 L25.4518185,19.1562641 C22.8700222,20.6846976 20.6869234,22.8664052 19.1562641,25.4518185 L10.3366452,16.6321996 C12.1145903,14.2358853 14.2358853,12.1145903 16.6321996,10.3366452 Z M10.3366452,52.3678004 L19.1562641,43.5481815 C20.6846976,46.1299778 22.8664052,48.3130766 25.4518185,49.8437359 L16.6321996,58.6633548 C14.2359171,56.8853728 12.1146272,54.7640829 10.3366452,52.3678004 Z M52.3678004,58.6633548 L43.5481815,49.8437359 C46.1299778,48.3153024 48.3130766,46.1335948 49.8437359,43.5481815 L58.6633548,52.3678004 C56.8853621,54.7640736 54.7640736,56.8853621 52.3678004,58.6633548 Z" id="Shape"></path>
        </g>
    </g>
</svg>