<?xml version="1.0" encoding="UTF-8"?>
<svg width="65px" height="64px" viewBox="0 0 65 64" version="1.1" xmlns="http://www.w3.org/2000/svg" xmlns:xlink="http://www.w3.org/1999/xlink">
    <!-- Generator: Sketch 50.2 (55047) - http://www.bohemiancoding.com/sketch -->
    <title>rain</title>
    <desc>Created with Sketch.</desc>
    <defs></defs>
    <g id="Page-1" stroke="none" stroke-width="1" fill="none" fill-rule="evenodd">
        <g id="fire" transform="translate(-530.000000, -121.000000)" fill="#F95D6A" fill-rule="nonzero">
            <g id="rain" transform="translate(530.000000, 121.000000)">
                <path d="M36.96,7.92009687e-16 C27.3614448,-0.0301215788 19.037613,6.62894389 16.96,16 C8.123444,16 0.96,23.163444 0.96,32 C0.940210131,35.9916883 2.47112596,39.8351116 5.23,42.72 C7.40251946,40.9252361 10.1422862,39.9611785 12.96,40 C14.5053993,40.0006431 16.0316415,40.3420843 17.43,41 C18.7895946,35.7336943 23.5211725,32.0403551 28.96,32 C34.3841343,32.0699873 39.0940641,35.7528169 40.47,41 C41.8868992,40.376338 43.4123506,40.0365938 44.96,40 C49.8144696,40.0373666 54.1630424,43.0102091 55.96,47.52 C61.2087375,46.1400551 64.8910699,41.4266695 64.96,36 C64.96,30.8 61.6,25.68 56.96,24 L56.96,20 C56.96,8.954305 48.005695,1.46834855e-15 36.96,7.92009687e-16 Z M27.69,40 C25.98455,40.5683943 24.867776,42.2046931 24.96,44 L24.96,60 C24.96,61.4290624 25.7223956,62.7495705 26.96,63.4641017 C28.1976043,64.1786329 29.7223957,64.1786329 30.96,63.4641017 C32.1976044,62.7495705 32.96,61.4290624 32.96,60 L32.96,44 C32.979024,42.8038227 32.461648,41.6619238 31.5497839,40.8875169 C30.6379198,40.1131101 29.4273046,39.7875004 28.25,40 L27.69,40 Z M11.69,48 C9.98454996,48.5683943 8.867776,50.2046931 8.96,52 L8.96,60 C8.96,62.209139 10.750861,64 12.96,64 C15.169139,64 16.96,62.209139 16.96,60 L16.96,52 C16.979024,50.8038227 16.461648,49.6619238 15.5497839,48.8875169 C14.6379198,48.1131101 13.4273046,47.7875004 12.25,48 L11.71,48 L11.69,48 Z M43.69,48 C41.98455,48.5683943 40.867776,50.2046931 40.96,52 L40.96,60 C40.96,62.209139 42.750861,64 44.96,64 C47.169139,64 48.96,62.209139 48.96,60 L48.96,52 C48.979024,50.8038227 48.461648,49.6619238 47.5497839,48.8875169 C46.6379198,48.1131101 45.4273046,47.7875004 44.25,48 L43.67,48 L43.69,48 Z" id="Shape"></path>
            </g>
        </g>
    </g>
</svg>