<?xml version="1.0" encoding="UTF-8"?>
<svg width="60px" height="64px" viewBox="0 0 60 64" version="1.1" xmlns="http://www.w3.org/2000/svg" xmlns:xlink="http://www.w3.org/1999/xlink">
    <!-- Generator: Sketch 50.2 (55047) - http://www.bohemiancoding.com/sketch -->
    <title>wifi</title>
    <desc>Created with Sketch.</desc>
    <defs></defs>
    <g id="Page-1" stroke="none" stroke-width="1" fill="none" fill-rule="evenodd">
        <g id="fire" transform="translate(-411.000000, -128.000000)" fill="#F95D6A" fill-rule="nonzero">
            <g id="wifi" transform="translate(411.000000, 127.000000)">
                <path d="M29.88,1 C19.2912538,0.990878106 8.92176835,4.01704656 7.10542736e-15,9.72 L4.22,16.2 C11.8983206,11.3630497 20.8055504,8.83597907 29.88,8.92 C39.0359331,8.78905368 48.0331138,11.3179909 55.78,16.2 L60,9.72 C51.0062,3.98011752 40.5492293,0.952734245 29.88,1 Z M29.88,25 C23.8482045,24.9817261 17.941425,26.7190141 12.88,30 L17.1,36.72 C20.8797075,34.267447 25.2943873,32.9743282 29.8,33 C34.4029602,32.9898946 38.9130999,34.2943658 42.8,36.76 L47,30 C41.8511061,26.7486577 35.8895066,25.0156346 29.8,25 L29.87,25 L29.88,25 Z M29.88,49 C25.461722,49 21.88,52.581722 21.88,57 C21.88,61.418278 25.461722,65 29.88,65 C34.298278,65 37.88,61.418278 37.88,57 C37.88,52.581722 34.298278,49 29.88,49 Z" id="Shape"></path>
            </g>
        </g>
    </g>
</svg>