<?xml version="1.0" encoding="UTF-8"?>
<svg width="151px" height="61px" viewBox="0 0 151 61" version="1.1" xmlns="http://www.w3.org/2000/svg" xmlns:xlink="http://www.w3.org/1999/xlink">
    <!-- Generator: Sketch 50.2 (55047) - http://www.bohemiancoding.com/sketch -->
    <title>xivig</title>
    <desc>Created with Sketch.</desc>
    <defs></defs>
    <g id="Page-1" stroke="none" stroke-width="1" fill="none" fill-rule="evenodd" opacity="0.857477679">
        <g id="fire" transform="translate(0.000000, -129.000000)" fill="#F86762" fill-rule="nonzero">
            <g id="xivig" transform="translate(0.000000, 129.000000)">
                <g id="Group" transform="translate(75.500000, 30.500000) scale(-1, 1) rotate(-180.000000) translate(-75.500000, -30.500000) ">
                    <path d="M45.3,59.4196891 C43.3926316,57.5233161 43.2336842,54.1256477 44.9821053,51.6761658 C45.9357895,50.253886 46.9689474,49.9378238 50.0684211,49.9378238 C53.1678947,49.9378238 54.2010526,50.253886 55.1547368,51.6761658 C58.2542105,56.1010363 55.5521053,61 50.0684211,61 C47.9226316,61 46.3331579,60.4468912 45.3,59.4196891 Z" id="Shape"></path>
                    <path d="M99.3421053,59.4196891 C97.4347368,57.5233161 97.2757895,54.1256477 99.0242105,51.6761658 C99.9778947,50.253886 101.011053,49.9378238 104.110526,49.9378238 C107.21,49.9378238 108.243158,50.253886 109.196842,51.6761658 C112.296316,56.1010363 109.594211,61 104.110526,61 C101.964737,61 100.375263,60.4468912 99.3421053,59.4196891 Z" id="Shape"></path>
                    <path d="M0.238421053,55.0738342 C0.556315789,54.4417098 3.57631579,49.7007772 7.15263158,44.4857513 C10.6494737,39.2707254 13.5105263,34.6088083 13.5105263,34.134715 C13.5105263,33.7396373 10.4905263,29.4727979 6.75526316,24.7318653 C3.02,19.9909326 0,15.8821244 0,15.6450777 C0,15.4080311 2.30473684,15.1709845 5.16578947,15.1709845 L10.2521053,15.1709845 L14.3052632,21.0971503 C16.5305263,24.3367876 18.4378947,27.0233161 18.5968421,27.0233161 C18.7557895,27.0233161 20.5836842,24.3367876 22.7294737,21.0971503 L26.6236842,15.1709845 L33.6173684,15.1709845 C37.4321053,15.1709845 40.5315789,15.4080311 40.5315789,15.6450777 C40.5315789,15.9611399 37.2731579,20.9391192 33.2994737,26.7862694 L26.0673684,37.3743523 L33.2994737,46.2240933 C37.2731579,51.0440415 40.5315789,55.3108808 40.5315789,55.626943 C40.5315789,56.0220207 38.3063158,56.2590674 35.5247368,56.2590674 L30.5178947,56.2590674 L26.0673684,50.253886 L21.6168421,44.2487047 L17.5636842,50.253886 L13.4310526,56.2590674 L6.67578947,56.2590674 C1.03315789,56.2590674 -0.0794736842,56.0220207 0.238421053,55.0738342 Z" id="Shape"></path>
                    <path d="M124.853158,48.2784974 C118.018421,45.5919689 114.918947,40.376943 114.918947,31.7642487 C114.918947,23.5466321 117.382632,18.884715 123.343158,15.8821244 C126.601579,14.2227979 133.595263,13.8277202 137.012632,15.1709845 C138.840526,15.8031088 139.078947,15.7240933 139.078947,14.3018135 C139.078947,13.4326425 138.522632,11.6943005 137.886842,10.4300518 C135.025789,4.89896373 129.303684,4.02979275 125.250526,8.45466321 C122.548421,11.2992228 120.958947,11.7733161 118.336316,10.4300518 C116.349474,9.3238342 116.428947,8.69170984 118.972105,5.61010363 C125.171053,-1.65932642 139.635263,-1.81735751 146.390526,5.37305699 C150.443684,9.63989637 151,12.9585492 151,31.4481865 L151,48.357513 L148.218421,48.357513 C145.993158,48.357513 145.118947,47.8834197 143.926842,45.9870466 L142.496316,43.6165803 L140.986316,45.2759067 C137.886842,48.7525907 129.780526,50.253886 124.853158,48.2784974 Z M136.694737,40.8510363 C138.284211,39.1917098 138.681579,37.7694301 138.92,33.5025907 C139.317368,27.2603627 137.886842,23.0725389 134.787368,21.0971503 C132.88,19.8329016 132.562105,19.8329016 130.734211,21.0181347 C124.058421,25.3639896 125.886316,42.8264249 132.959474,42.8264249 C133.992632,42.8264249 135.661579,41.9572539 136.694737,40.8510363 Z" id="Shape"></path>
                    <polygon id="Shape" points="44.5052632 31.7642487 44.5052632 15.1709845 50.0684211 15.1709845 55.6315789 15.1709845 55.6315789 31.7642487 55.6315789 48.357513 50.0684211 48.357513 44.5052632 48.357513"></polygon>
                    <path d="M59.6052632,47.8044041 C59.6052632,47.4093264 62.1484211,39.9818653 65.3273684,31.2111399 L71.1289474,15.1709845 L76.6921053,15.1709845 L82.2552632,15.1709845 L88.4542105,30.8160622 C91.7921053,39.4287565 94.5736842,46.9352332 94.5736842,47.4093264 C94.5736842,48.0414508 93.0636842,48.357513 90.2821053,48.357513 L85.9110526,48.357513 L82.5731579,37.6904145 C80.7452632,31.8432642 78.9968421,27.2603627 78.7584211,27.4183938 C78.4405263,27.5764249 76.6126316,32.3173575 74.7052632,38.0064767 L71.1289474,48.357513 L65.4068421,48.357513 C62.2278947,48.357513 59.6052632,48.1204663 59.6052632,47.8044041 Z" id="Shape"></path>
                    <polygon id="Shape" points="98.5473684 31.7642487 98.5473684 15.1709845 104.110526 15.1709845 109.673684 15.1709845 109.673684 31.7642487 109.673684 48.357513 104.110526 48.357513 98.5473684 48.357513"></polygon>
                </g>
            </g>
        </g>
    </g>
</svg>