<?xml version="1.0" standalone="no"?>
<!DOCTYPE svg PUBLIC "-//W3C//DTD SVG 20010904//EN"
 "http://www.w3.org/TR/2001/REC-SVG-20010904/DTD/svg10.dtd">
<svg version="1.0" xmlns="http://www.w3.org/2000/svg"
 width="234.000000pt" height="94.000000pt" viewBox="0 0 234.000000 94.000000"
 preserveAspectRatio="xMidYMid meet">
<metadata>
Created by potrace 1.15, written by Peter Selinger 2001-2017
</metadata>
<g transform="translate(0.000000,94.000000) scale(0.100000,-0.100000)"
fill="#000000" stroke="none">
<path d="M760 820 c-24 -24 -26 -67 -4 -98 12 -18 25 -22 64 -22 39 0 52 4 64
22 39 56 5 118 -64 118 -27 0 -47 -7 -60 -20z"/>
<path d="M1440 820 c-24 -24 -26 -67 -4 -98 12 -18 25 -22 64 -22 39 0 52 4
64 22 39 56 5 118 -64 118 -27 0 -47 -7 -60 -20z"/>
<path d="M193 765 c4 -8 42 -68 87 -134 44 -66 80 -125 80 -131 0 -5 -38 -59
-85 -119 -47 -60 -85 -112 -85 -115 0 -3 29 -6 65 -6 l64 0 51 75 c28 41 52
75 54 75 2 0 25 -34 52 -75 l49 -75 88 0 c48 0 87 3 87 6 0 4 -41 67 -91 141
l-91 134 91 112 c50 61 91 115 91 119 0 5 -28 8 -63 8 l-63 0 -56 -76 -56 -76
-51 76 -52 76 -85 0 c-71 0 -85 -3 -81 -15z"/>
<path d="M1761 679 c-86 -34 -125 -100 -125 -209 0 -104 31 -163 106 -201 41
-21 129 -26 172 -9 23 8 26 7 26 -11 0 -11 -7 -33 -15 -49 -36 -70 -108 -81
-159 -25 -34 36 -54 42 -87 25 -25 -14 -24 -22 8 -61 78 -92 260 -94 345 -3
51 54 58 96 58 330 l0 214 -35 0 c-28 0 -39 -6 -54 -30 l-18 -30 -19 21 c-39
44 -141 63 -203 38z m149 -94 c20 -21 25 -39 28 -93 5 -79 -13 -132 -52 -157
-24 -16 -28 -16 -51 -1 -84 55 -61 276 28 276 13 0 34 -11 47 -25z"/>
<path d="M750 470 l0 -210 70 0 70 0 0 210 0 210 -70 0 -70 0 0 -210z"/>
<path d="M940 673 c0 -5 32 -99 72 -210 l73 -203 70 0 70 0 78 198 c42 109 77
204 77 210 0 8 -19 12 -54 12 l-55 0 -42 -135 c-23 -74 -45 -132 -48 -130 -4
2 -27 62 -51 134 l-45 131 -72 0 c-40 0 -73 -3 -73 -7z"/>
<path d="M1430 470 l0 -210 70 0 70 0 0 210 0 210 -70 0 -70 0 0 -210z"/>
</g>
</svg>
